<?xml version="1.0" encoding="utf-8" ?>
<svg xmlns="http://www.w3.org/2000/svg" xmlns:xlink="http://www.w3.org/1999/xlink" width="708" height="708">
	<path fill="none" transform="scale(0.691231 0.691231)" d="M0 0L1024 0L1024 1024L0 1024L0 0Z"/>
	<path fill="#555" transform="scale(0.691231 0.691231)" d="M282.792 105.176C287.913 104.517 297.737 104.154 302.352 106.732C302.511 107.889 300.931 108.82 300.08 109.633C296.71 112.852 294.772 116.055 293.281 120.416C294.657 125.473 297.743 128.819 301.033 132.745C310.106 143.571 316.08 148.56 328.042 156.073C318.129 161.136 306.455 165.546 295.305 162.644C289.993 161.261 284.903 159.081 279.568 157.767C273.497 156.271 266.976 155.978 260.741 155.692C227.771 154.395 195.136 162.728 166.824 179.674C149.877 189.898 136.999 203.895 132.205 223.449C128.263 239.525 131.213 258.45 140.603 272.166C144.886 278.422 150.056 283.693 154.01 290.258C155.86 290.325 157.738 290.388 159.558 290.756C164.943 291.847 167.719 295.314 170.571 299.64C176.438 297.93 180.597 298.421 186.252 300.523C187.241 299.465 188.25 298.436 189.329 297.468C194.376 292.942 199.662 293.184 205.986 293.563L206.146 292.973L206.424 291.992C207.394 288.485 208.477 285.43 211.119 282.785C214.607 279.293 219.032 278.899 223.68 279.001C224.738 275.236 225.878 271.443 228.39 268.349C231.575 264.427 235.577 263.45 240.325 262.937C246.497 247.327 249.355 254.872 255.719 248.549C257.942 246.341 258.438 242.941 260.567 240.65C263.204 237.814 268.055 237.121 271.695 237.058C272.766 232.15 274.185 226.573 278.408 223.388C281.438 221.101 283.932 221.133 287.557 221.61C299.139 202.866 310.019 183.197 330.583 172.974C345.055 165.779 362.083 167.496 377.594 163.978C390.812 160.979 404.895 152.93 418.526 153.279C423.356 153.403 428.035 155.004 432.717 156.073C443.771 158.595 454.044 161.186 464.81 164.81C474.336 161.03 479.262 160.617 489.388 162.186C496.059 159.495 502.742 156.769 509.691 154.868C532.906 148.515 565.136 145.969 588.627 150.537C633.583 159.279 666.758 198.22 694.369 231.81C702.225 241.367 710.776 250.504 717.738 260.753C733.278 263.434 748.493 267.333 763.621 271.756C824.355 289.512 876.851 323.068 907.718 379.595C918.012 398.447 925.864 419.812 930.419 440.784C931.894 447.573 931.62 455.268 933.644 461.796C935.586 468.055 939.034 474.111 941.283 480.334C950.612 506.151 964.659 549.492 965.6 576.5C965.821 582.875 964.929 589.315 963.564 595.532C960.426 609.83 951.473 621.734 945.005 634.623C937.824 648.832 931.961 663.669 927.489 678.948C935.761 683.298 943.334 690.899 947.852 699.073C955.83 713.506 956.634 731.396 951.184 746.817C949.124 752.645 946.038 758.113 944.34 764.062C944.281 764.27 944.227 764.481 944.17 764.69C943.557 753.106 946.258 742.369 943.94 730.715C943.146 739.128 939.199 746.729 938.273 755.038C937.085 765.702 945.438 772.732 951.494 780.095L951.798 780.47C950.423 780.076 949.042 779.675 947.7 779.178C936.733 775.114 927.184 766.202 920.706 756.651C900.235 726.472 909.709 695.787 920.806 664.446C928.144 643.721 940.016 613.696 942.12 592.273C944.166 571.436 938.812 548.952 929.983 530.162C925.448 546.609 920.723 562.386 914.252 578.227C910.341 587.802 905.536 596.959 900.792 606.14C889.455 628.36 876.739 649.849 862.718 670.482C870.954 691.718 878.39 713.262 886.412 734.579C890.133 744.466 894.246 754.216 898.122 764.045C903.265 777.087 909.001 794.523 916.592 805.887C925.584 819.348 941.001 833.89 952.53 845.677C949.855 853.687 945.805 860.679 940.06 866.886C918.692 889.967 885.793 896.683 855.67 897.795C850.596 877.658 852.419 863.843 861.191 845.342C859.887 840.324 858.47 835.545 856.428 830.76C849.87 815.391 834.429 789.775 823.604 776.764C820.047 772.488 816.092 768.68 811.985 764.943C807.514 776.127 803.094 787.267 799.292 798.703C793.876 814.992 780.195 858.467 783.518 874.758C785.264 883.316 790.142 890.556 793.991 898.239C792.553 899.679 791.104 901.115 789.511 902.386C768.901 918.83 738.116 918.995 713.105 916.026C698.768 915.182 678.226 908.451 665.806 901.307C669.56 884.718 676.552 868.248 689.726 856.963C693.504 853.726 697.73 851.288 701.735 848.379C705.625 839.19 732.307 767.823 732.401 762.096C732.548 753.062 730.386 743.47 729.002 734.56C726.808 720.432 724.613 706.287 723.273 692.047C680.215 691.221 633.281 680.091 595.155 659.986C581.364 652.714 568.221 643.823 555.604 634.692C553.692 637.461 551.703 640.177 549.64 642.836C549.08 662.626 549.612 682.432 551.234 702.163C553.808 736.061 560.741 769.325 569.62 802.077C572.081 811.156 574.387 821.866 579.309 829.935C583.835 837.355 591.108 843.232 597.254 849.268C601.925 853.855 606.382 858.672 611.35 862.945C607.497 871.706 599.837 879.708 592.529 885.715C564.73 908.564 525.276 916.409 490.103 912.888C490.031 903.915 490.448 894.08 493.056 885.431C495.368 877.763 500.711 871.744 500.274 863.259C499.405 846.4 483.907 836.667 479.626 821.394C478.336 816.792 478.557 811.237 478.214 806.473C477.736 800.527 477.185 794.588 476.558 788.656C474.712 770.743 472.077 752.92 468.661 735.238C459.456 748.128 449.621 760.506 440.947 773.777C433.026 785.897 426.434 798.577 419.972 811.51C410.468 830.528 402.478 851.311 410.177 872.413C413.884 882.575 418.872 892.354 422.237 902.619L422.44 903.255C414.514 908.735 405.008 911.899 395.723 914.171C363.621 922.027 316.486 919.026 288.049 901.72C291.715 889.374 297.467 874.811 307.172 865.901C313.387 860.195 323.764 857.608 327.286 849.527C333.995 834.135 332.588 815.252 332.429 798.793C332.384 794.189 332.035 789.301 332.674 784.745C334.019 775.158 347.354 755.9 352.389 745.684C356.332 737.684 359.611 729.359 363.632 721.393C367.169 714.387 371.194 707.628 374.666 700.59C380.119 689.532 385.053 678.161 390.357 667.019C396.757 653.577 403.718 640.096 408.918 626.142C411.723 618.616 413.812 610.792 415.931 603.052C403.021 573.767 402.242 557.98 402.537 526.981C402.631 517.169 403.055 507.131 401.295 497.437C397.576 476.941 386.234 459.435 385.831 438.064C375.385 436.843 365.056 435.923 354.687 438.219C348.518 439.585 342.639 441.882 337.403 445.449C331.236 449.65 321.746 462.019 314.389 461.608C312.013 461.475 310.02 460.292 308.446 458.557C299.42 448.614 300.091 426.407 300.464 413.716C287.537 421.952 275.22 431.056 262.347 439.354C238.24 455.205 211.463 466.562 183.311 472.878C141.893 482.25 93.6885 482.242 56.7109 458.942C113.749 463.624 178.828 449.564 224.467 413.625C192.245 412.443 154.987 397.337 129.068 378.408C94.8622 353.428 70.1075 316.843 63.5858 274.588C58.1603 239.436 62.5041 211.568 86.4785 184.55C89.6524 180.973 93.1038 177.553 96.6197 174.31C98.4761 172.597 102.314 170.075 103.615 168.097C104.904 166.139 103.656 164.007 105.759 161.922C108.982 158.727 113.474 160.009 116.425 157.39C118.174 155.837 117.885 152.951 119.454 151.276C121.965 148.595 127.506 149.019 130.853 149.146C131.255 147.883 131.661 146.621 132.414 145.517C136.241 139.903 139.159 142.642 144.518 141.233C146.366 140.748 147.306 140.102 148.262 138.484C150.29 135.053 151.514 134.523 155.324 133.317C157.35 133.731 159.423 133.978 161.47 134.28C161.907 133.225 162.408 132.229 163.085 131.306C168.41 124.041 171.374 130.409 176.812 128.904C178.206 128.518 178.598 127.764 179.318 126.629C179.913 125.692 180.333 124.777 181.346 124.197C184.278 122.517 189.083 124.396 192.009 125.486C193.409 123.288 194.937 121.196 197.467 120.233C200.936 118.914 204.152 120.514 207.327 121.824C209.218 120.068 211.068 118.284 213.634 117.619C217.147 116.708 220.083 118.344 223.054 119.98C228.013 113.907 233.064 117.847 239.436 117.972C253.961 118.258 267.642 106.976 282.792 105.176Z"/>
	<path fill="#FFF" transform="scale(0.691231 0.691231)" d="M283.577 114.524L284.376 114.531C284.716 115.503 277.762 121.422 277.868 126.044C278.08 135.354 292.363 143.874 298.626 149.74C274.732 136.866 261.22 134.469 234.275 136.86C218.622 138.249 203.272 142.127 188.425 147.158C181.955 149.35 175.259 151.37 168.986 154.053C150.783 161.851 134.658 173.8 121.898 188.943C121.286 188.699 120.669 188.468 120.047 188.252C115.184 186.579 110.163 186.663 105.56 189.113C99.3869 192.398 97.4519 197.606 95.6365 203.909C97.6739 201.463 99.6856 198.833 102.026 196.67C106.053 192.948 110.388 191.395 115.902 191.811C117.22 191.91 117.928 192.065 118.752 193.092C118.049 197.93 115.483 202.885 114.167 207.691C111.578 207.455 108.913 207.118 106.326 207.502C100.678 208.339 95.5629 211.77 92.2588 216.378C89.5618 220.139 87.5246 225.998 88.3715 230.698C91.0335 228.662 91.5688 222.861 93.9209 220.166C99.2174 214.097 105.58 212.566 113.27 212.206C112.513 216.034 111.59 219.905 111.416 223.81C104.432 226.986 97.0984 231.463 93.5751 238.568C90.8441 244.075 91.4693 248.658 93.4503 254.172C93.4233 250.549 93.4116 247.408 94.7491 243.963C97.6538 236.482 104.354 232.511 111.295 229.391C111.269 234.446 111.662 239.338 112.475 244.327C111.581 244.741 110.695 245.172 109.818 245.62C102.355 249.461 99.5193 255.116 97.1027 262.724C101.352 256.939 107.724 252.486 113.702 248.664C115.118 252.471 116.511 256.288 117.879 260.112C106.745 268.93 100.245 277.111 98.5606 291.459C103.62 280.802 110.379 272.387 119.478 264.838C121.277 268.798 123.488 272.457 125.729 276.176C116.415 286.858 113.094 296.77 113.772 310.766C117.551 298.131 120.469 290.377 129.255 280.321C131.842 283.256 134.274 286.355 136.763 289.375C135.641 291.145 134.436 292.895 133.44 294.74C126.665 307.286 126.749 323.854 130.519 337.251C130.377 320.868 131.213 306.053 140.259 291.74C143.583 295.774 147.479 298.589 151.666 301.629C153.121 318.172 146.574 333.462 146.349 349.673C154.939 332.402 157.885 318.276 157.458 299.169C158.914 301.055 160.193 302.974 161.192 305.146C169.278 322.724 169.555 346.197 163.007 364.247C164.361 362.262 165.615 360.252 166.629 358.07C174.539 341.048 174.653 324.622 168.226 307.216C171.405 309.33 174.307 311.833 176.863 314.668C191.65 331.042 191.5 354.131 190.312 374.804C194.73 365.691 196.025 355.813 195.532 345.743C194.796 330.683 189.316 319.489 178.255 309.408C179.559 309.297 180.866 309.223 182.175 309.185C188.242 309.06 194.592 312.869 198.821 316.973C216.288 333.921 218.207 359.917 218.689 382.754C223.7 360.389 222.535 333.478 206.283 315.685C203.907 313.084 196.021 307.922 195.041 305.802C196.733 303.968 198.44 303.463 200.904 303.195C210.051 302.199 220.246 307.013 227.188 312.652C244.024 326.33 250.284 350.749 252.413 371.373C255.846 356.116 251.97 335.9 245.072 322.028C238.377 308.669 226.641 298.523 212.454 293.829C218.687 289.83 225.492 287.099 233.064 288.546C248.712 291.536 263.917 306.832 272.454 319.505C276.401 325.364 279.431 331.778 283.328 337.685C281.067 328.484 277.531 319.256 272.711 311.087C263.607 295.662 248.778 284.458 231.453 279.913C233.444 277.269 235.707 274.968 238.731 273.533C243.758 271.147 249.266 271.727 254.39 273.466C276.426 280.948 288.7 302.349 298.372 321.944C296.589 312.542 294.099 303.799 289.551 295.325C281.108 279.593 268.155 270.171 251.259 265.079C253.911 262.615 256.389 260.589 259.991 259.646C267.481 257.684 277.017 260.508 283.56 264.243C299.1 273.117 309.877 290.59 314.558 307.455C314.278 292.181 308.69 278.108 298.127 266.982C288.466 256.806 277.597 252.3 263.727 251.926C265.48 250.312 267.253 248.586 269.316 247.372C275.066 243.988 281.996 244.267 288.212 246.071C302.329 250.166 313.646 262.721 320.543 275.191C318.925 268.003 317.073 261.162 312.632 255.14C304.718 244.408 293.538 239.101 280.693 237.083C281.033 236.729 281.383 236.386 281.743 236.052C285.583 232.49 290.123 230.799 295.369 231.164C310.279 232.203 321.959 246.866 331.11 257.155C329.634 252.468 328.098 248.276 325.448 244.103C318.481 233.131 309.082 226.66 296.501 223.889C307.629 211.613 311.324 199.42 325.864 189.071C330.587 185.709 335.739 182.669 341.31 180.956C352.241 177.595 364.549 177.929 375.845 175.665C386.486 173.532 396.391 169.122 406.928 166.775C410.068 166.055 413.27 165.639 416.489 165.533C429.903 165.076 442.676 168.513 455.782 170.707C450.669 174.842 445.834 178.221 441.94 183.618C454.36 178.328 465.072 171.898 478.461 168.688C475.293 171.956 471.423 174.757 467.937 177.699C463.562 181.391 459.603 185.334 455.791 189.605C468.32 182.241 480.862 175.222 494.596 170.319C520.458 161.086 561.719 157.092 588.464 163.341C631.725 173.447 664.449 213.222 690.631 246.642C697.983 256.026 706.102 265.485 712.41 275.599C699.69 271.617 686.132 269.096 672.881 267.765C664.168 266.89 655.281 266.698 646.687 264.958C656.276 269.074 667.34 270.527 677.441 273.16C689.573 276.323 700.789 281.177 711.949 286.79C710.258 291.691 708.246 296.476 705.924 301.112C673.093 279.174 640.047 276.049 601.819 276.627C628.466 283.481 650.344 290.489 674.299 304.324C684.293 310.095 694.3 316.848 702.601 324.928C696.02 333.963 689.664 343.285 682.611 351.957C653.415 322.467 612.185 296.809 570.584 291.073C574.966 293.054 579.302 295.137 583.587 297.318C612.322 312.26 636.192 333.428 656.349 358.625C659.673 362.78 665.831 369.622 667.19 374.759C667.473 375.829 667.058 376.044 666.556 376.968C663.604 381.573 660.434 386.61 656.305 390.25C649.553 396.204 629.643 403.185 620.855 406.929C619.084 402.325 617.695 397.559 615.95 392.937C611.293 380.607 605.438 369.192 598.221 358.157C605.31 375.855 609.556 394.199 612.774 412.952C606.064 418.422 599.434 424.2 592.063 428.769C590.522 419.92 589.999 410.982 588.024 402.189C578.546 359.995 557.036 315.124 522.529 287.891C527.026 293.469 531.763 298.732 535.855 304.646C563.735 345.258 577.49 393.909 575.002 443.107C564.995 452.028 554.218 457.083 541.095 459.589C540.395 444.449 537.031 428.463 529.643 415.109C533.796 430.304 533.65 447.894 532.151 463.439C527.136 464.67 522.165 465.895 517.259 467.52C520.054 449.86 519.547 422.876 512.194 406.245C513.577 430.484 509.292 451.681 504.486 475.154C502.678 476.329 500.761 477.325 498.759 478.127C483.618 484.323 461.298 483.507 446.318 477.218C444.691 469.308 444.913 460.918 444.911 452.878C444.9 407.517 457.892 363.991 474.31 322.069C479.041 309.989 489.657 291.413 491.424 279.488C491.918 276.156 491.629 272.532 491.52 269.17C495.049 262.802 501.634 258.37 507.945 255.066C523.288 247.031 539.813 242.3 556.711 238.876C588.353 232.464 621.144 231.092 652.819 238.227C659.252 239.676 665.569 241.781 671.866 243.726C665.848 239.639 658.774 236.699 652.093 233.841C626.449 222.87 599.006 215.964 570.92 218.662C583.215 213.766 596.232 209.486 609.426 208.063C615.379 207.42 621.352 207.503 627.319 207.102C608.516 203.924 589.646 200.48 570.5 200.592C543.776 200.749 511.579 207.461 492.26 227.308C483.715 236.086 479.651 245.838 482.16 258.115C483.168 263.046 484.595 267.943 484.631 273.008C484.709 284.189 478.931 292.663 471.308 300.295C473.312 293.214 476.772 283.23 474.978 275.851L474.451 275.92C470.168 290.192 461.268 301.516 451.106 312.126C445.955 317.504 440.782 322.696 436.772 329.026C447.485 325.589 456.864 319.916 465.719 313.061C455.712 332.94 449.643 354.875 443.765 376.261C441.43 384.756 440.326 395.824 435.949 403.473C433.569 407.631 428.723 411.631 424.866 414.391C397.489 433.985 373.853 416.823 349.106 425.948C344.224 427.749 339.602 430.367 335.358 433.362C331.914 435.792 318.973 447.712 315.838 448.324C315.18 448.452 314.756 447.772 314.292 447.369C309.683 437.051 316.914 407.111 320.395 395.629C322.995 397.143 325.56 398.727 328.138 400.28C324.888 408.03 316.586 435.498 317.147 443.24L317.725 443.497C321.338 441.613 331.57 418.002 334.563 412.69C337.77 406.999 341.733 400.438 346.587 395.991C356.525 386.885 368.429 386.297 380.674 382.514C395.887 377.813 409.067 369.768 420.44 358.647C401.319 368.578 383.803 375.313 362.09 376.618C375.813 366.655 381.909 367.451 393.944 352.378C389.204 354.277 371.049 362.286 367.04 361.733C366.311 361.632 365.82 361.487 365.45 360.839C363.638 357.67 365.925 343.92 366.837 340.131C368.292 334.081 370.721 328.3 373.369 322.687C384.253 299.62 401.376 306.475 420.483 294.774C432.085 287.668 438.67 278.303 441.887 265.1C438.628 270.138 435.368 275.182 431.166 279.502C409.59 301.675 383.9 288.344 364.328 308.624C357.348 315.858 355.09 323.41 354.965 333.308C354.929 336.214 355.051 339.224 354.406 342.072C351.408 355.302 339.838 371.675 330.356 381.042C324.52 375.405 318.5 370.244 310.875 367.206C297.832 362.008 285.49 364.29 273.021 369.705C288.888 345.616 305.335 330.59 330.916 316.623C330.389 316.723 329.865 316.831 329.342 316.949C306.721 321.98 286.312 340.806 273.07 359.133C266.553 368.151 261.271 377.959 255.277 387.311C247.275 388.205 239.231 387.85 231.225 387.144C184.651 383.037 142.263 363.464 112.015 327.189C91.236 302.269 73.3274 263.294 76.3705 230.47C78.6377 206.015 96.6253 185.27 114.931 170.196C118.583 171.702 124.586 177.356 128.246 177.167C128.233 177.025 128.24 176.881 128.209 176.743C127.388 173.073 120.99 168.739 118.079 166.554C121.966 162.87 125.474 160.203 130.257 157.788C135.898 161.547 135.385 166.15 138.2 168.38C139.04 167.577 139.417 166.361 139.416 165.201C139.413 161.034 136.423 157.617 133.601 154.928C137.599 152.759 141.933 151.001 146.068 149.09C149.886 151.816 151.974 154.945 153.802 159.224L154.107 159.949C154.973 158.944 155.29 157.226 155.255 155.902C155.159 152.262 151.972 149.13 149.398 146.958C153.894 144.855 158.518 142.988 163.082 141.038C168.902 146.301 168.33 151.548 169.776 152.797C170.213 152.396 170.488 152.045 170.686 151.476C172.117 147.355 168.963 142.617 167.1 139.107C170.68 137.886 176.631 135.387 180.383 135.957C182.975 136.35 183.058 140.791 184.554 142.724C185.221 143.586 185.468 144.135 186.563 144.28C187.368 140.87 185.361 136.783 183.858 133.813C186.582 133.286 189.755 132.226 192.505 132.311C194.994 132.387 196.035 138.438 197.815 140.391L198.264 139.863C199.229 136.461 197.804 133.492 196.595 130.353C200.631 129.725 205.424 128.48 209.485 129.052C210.975 130.05 211.604 133.338 212.279 135.038L213.012 135.312L213.749 134.51C214.005 132.276 213.543 130.397 213.073 128.233C217.302 127.551 221.501 127.165 225.781 127.017C226.52 129.872 227.031 132.824 227.627 135.714C228.034 132.871 228.006 130.092 228.043 127.225C233.864 125.007 245.021 127.203 252.012 125.986C262.982 124.076 272.934 117.815 283.577 114.524Z"/>
	<path fill="#555" transform="scale(0.691231 0.691231)" d="M372.333 252.115C387.729 251.455 386.025 263.67 395.608 267.229C402.515 269.795 412.03 264.112 418.247 261.325C416.353 263.36 414.428 265.318 412.275 267.084C410.461 268.585 408.449 269.83 406.296 270.784C401.722 272.783 396.56 273.129 391.954 275.035C386.604 277.248 382.408 281.236 376.529 282.33C372.848 283.015 368.745 281.77 365.028 281.415C362.771 280.928 360.59 280.192 358.39 279.497C359.746 278.274 360.792 276.836 361.902 275.393C360.696 274.483 360.479 274.318 359.905 272.934C358.814 273.217 357.744 275.584 357.133 276.63C352.749 284.128 345.259 291.382 338.954 297.272L339.213 296.869L339.637 296.193C345.895 286.376 350.138 275.353 356.287 265.463C360.15 259.25 364.937 253.864 372.333 252.115Z"/>
	<path fill="#FFF" transform="scale(0.691231 0.691231)" d="M378.835 271.244C379.71 271.117 380.042 271.146 380.877 271.317C380.648 273.042 378.137 275.031 376.914 276.346C379.961 275.131 381.874 271.864 385.144 271.207L385.518 271.806C384.181 274.83 381.252 276.093 378.531 277.68C374.475 279.58 366.643 281.095 362.29 279.749L361.995 278.975C363.52 277.733 365.811 278.36 367.721 277.528C369.117 276.079 369.329 274.085 369.766 272.184C372.766 271.71 375.811 271.511 378.835 271.244Z"/>
	<path fill="#FFF" transform="scale(0.691231 0.691231)" d="M370.405 261.687C366.305 263.652 363.786 266.091 360.611 269.295L360.383 269.058C362.159 265.1 366.753 259.026 371.107 257.593C373.674 256.749 376.742 257.308 379.367 257.649C381.622 259.288 386.285 262.241 387.327 264.693C386.596 264.306 385.854 263.932 385.138 263.519C385.017 263.431 384.901 263.336 384.775 263.255C380.024 260.173 375.627 260.453 370.405 261.687Z"/>
	<path fill="#555" transform="scale(0.691231 0.691231)" d="M440.684 331.323L441.364 332.24C442.256 341.064 439.257 354.558 437.291 363.329C430.013 395.793 414.348 412.623 380.023 413.218C364.246 413.492 352.368 410.892 338.222 419.867L337.772 419.906L337.97 418.974C354.108 403.485 377.807 408.98 397.193 401.109C417.463 392.878 428.242 371.972 434.488 352.118C436.584 345.455 437.683 338.252 440.452 331.841C440.527 331.667 440.607 331.495 440.684 331.323Z"/>
	<path fill="#555" transform="scale(0.691231 0.691231)" d="M488.884 315.435C488.903 315.946 480.545 345.445 479.698 349.135C475.459 367.606 471.098 386.581 468.643 405.371C467.776 412.01 468.088 418.774 467.268 425.404C466.813 425.105 466.596 423.915 466.419 423.393C466.35 423.052 466.286 422.71 466.226 422.367C458.975 379.018 463.79 351.411 488.884 315.435Z"/>
	<path fill="#555" transform="scale(0.691231 0.691231)" d="M487.639 214.951L488.036 215.076C488.265 216.964 482.574 222.068 481.179 223.944C475.094 232.123 470.45 238.624 472.009 249.366C468.802 248.888 465.843 248.114 462.912 246.723C461.453 245.625 460.085 244.365 459.199 242.747C458.238 240.989 458.197 239.152 458.852 237.274C461.847 228.687 479.635 218.721 487.639 214.951Z"/>
	<path fill="#555" transform="scale(0.691231 0.691231)" d="M457.329 273.374C457.404 274.061 457.444 274.2 457.385 274.991C456.721 283.82 451.312 297.399 444.626 303.52C438.019 309.568 429.861 310.677 421.331 310.377C421.323 310.152 421.166 309.876 421.308 309.701C421.845 309.04 425.961 307.617 426.958 307.105C430.124 305.478 433.223 303.691 436.048 301.517C445.352 294.358 451.24 283.195 457.329 273.374Z"/>
	<path fill="#555" transform="scale(0.691231 0.691231)" d="M375.125 239.083C384.984 238.069 393.505 240.763 401.204 246.95C391.943 244.891 383.436 243.685 373.953 244.806C366.494 247.103 360.649 251.011 354.439 255.616C355.018 254.473 355.646 253.356 356.322 252.268C360.776 245.224 367.038 240.987 375.125 239.083Z"/>
	<path fill="#FFF" transform="scale(0.691231 0.691231)" d="M724.237 275.248C757.135 281.943 789.634 292.226 819.252 308.245C865.16 333.662 899.244 376.098 914.161 426.407C926.506 467.612 925.544 511.662 911.412 552.289C906.642 566.221 900.282 579.865 893.751 593.044C888.515 603.607 883.279 614.3 877.226 624.42C858.162 656.289 836.546 686.414 818.842 719.132C798.924 755.941 778.954 812.059 772.425 853.675C771.487 859.656 770.201 866.201 770.577 872.25C771.051 879.87 775.678 887.998 777.865 895.366C766.512 902.538 753.74 903.815 740.749 905.44C739.234 901.664 737.93 897.608 735.803 894.127C733.168 889.813 729.64 886.641 724.609 885.503C717.332 883.856 711.58 887.246 705.718 891.009C704.508 888.731 703.331 886.356 701.803 884.271C698.338 879.541 694.17 877.534 688.535 876.585C694.431 868.488 701.47 863.01 711.035 860.029C713.872 854.21 715.794 847.889 718.048 841.824C723.944 825.958 729.259 809.907 735.092 794.023C743.382 771.446 752.308 749.097 760.443 726.467C763.775 717.202 767.315 707.907 770.051 698.449C760.353 714.597 752.872 732.41 744.742 749.406C742.883 734.639 738.75 720.05 736.556 705.266C735.041 695.059 732.434 672.501 734.788 663.159C737.14 653.821 755.5 635.41 762.451 626.955C766.401 622.149 770.056 617.087 773.764 612.093C810.517 562.599 837.629 488.371 828.443 426.321C827.697 437.575 827.532 448.52 825.544 459.684C815.565 515.718 786.834 542.614 742.077 573.895C730.815 581.408 718.854 588.179 707.871 596.042C740.295 584.948 765.789 574.418 793.239 553.513C778.749 581.428 758.522 608.663 730.877 624.752C704.612 640.038 673.386 639.953 644.655 632.218C621.815 626.069 599.055 613.243 586.93 592.238C620.589 597.088 656.214 592.619 686.675 577.095C655.53 582.378 633.747 586.065 602.427 577.3C640.825 575.13 685.866 558.386 716.661 535.33C685.766 549.116 639.627 558.877 606.008 560.178C645.053 541.417 682.831 508.816 707.13 472.898C699.7 478.877 692.479 485.104 684.902 490.901C663.937 506.943 627.239 531.963 603.015 540.472C610.601 531.364 620.069 523.617 628.03 514.762C643.468 497.52 655.958 477.852 665 456.548C667.743 450.235 669.875 443.681 672.56 437.337C667.234 443.664 662.387 450.407 657.161 456.822C647.862 468.234 638.289 479.156 628.337 489.995C634.773 466.7 639.087 442.848 632.057 419.221C642.175 414.213 654.898 410.066 663.916 403.43C672.273 397.28 681.451 382.146 687.645 373.429L709.368 342.9C714.211 336.003 718.793 328.938 723.867 322.204C721.67 319.461 719.364 316.816 717.062 314.161L723.126 306.768C728.582 305.752 733.951 304.407 739.479 303.773C759.999 301.419 779.22 305.991 798.549 312.293C782.915 301.129 745.579 289.545 726.147 287.309C725.69 283.243 725.008 279.266 724.237 275.248Z"/>
	<path fill="#555" transform="scale(0.691231 0.691231)" d="M862.735 358.334C866.204 360.701 869.32 365.251 871.803 368.587C885.89 387.801 896.541 409.311 903.283 432.163C900.962 435.654 898.529 438.994 895.945 442.296C893.391 445.478 890.503 448.244 887.529 451.028C889.899 427.15 883.26 399.207 873.172 377.588C870.075 370.951 865.993 364.877 862.735 358.334Z"/>
	<path fill="#555" transform="scale(0.691231 0.691231)" d="M784.782 620.888C785.369 624.732 769.62 661.404 766.543 668.187C759.915 682.799 752.299 696.641 746.514 711.682C746.44 711.457 746.343 711.239 746.292 711.008C745.469 707.309 747.058 701.222 747.8 697.443C754.075 665.491 767.837 647.558 784.782 620.888Z"/>
	<path fill="#555" transform="scale(0.691231 0.691231)" d="M910.369 521.918C910.524 522.678 910.509 523.183 910.293 523.934C903.219 548.575 876.825 563.373 855.844 574.622C855.775 574.176 855.735 574.162 855.856 573.661C858.242 563.823 881.446 549.887 889.325 542.597C896.339 536.108 902.463 527.279 910.369 521.918Z"/>
	<path fill="#555" transform="scale(0.691231 0.691231)" d="M911.478 494.418C912.139 498.381 910.748 503.407 910.543 507.512C901.231 521.001 881.005 537.169 866.989 544.992L866.891 544.672C869.691 532.836 888.225 520.057 896.798 511.338C902.036 506.011 906.785 500.223 911.478 494.418Z"/>
	<path fill="#555" transform="scale(0.691231 0.691231)" d="M909.756 472.861C911.242 474.676 910.573 481.924 910.562 484.562C902.714 498.241 886.852 512.272 874.492 521.888C874.155 521.597 874.18 521.722 874.184 521.174C874.245 511.874 892.331 493.88 898.572 486.511C902.375 482.02 905.897 477.308 909.756 472.861Z"/>
	<path fill="#555" transform="scale(0.691231 0.691231)" d="M901.277 553.413C901.633 555.362 900.189 558.048 899.353 559.827C894.151 570.89 878.73 583.948 868.203 589.645C861.417 593.318 854.125 595.843 846.866 598.384C847.047 591.39 877.159 575.484 883.558 570.538C890.118 565.469 895.673 559.477 901.277 553.413Z"/>
	<path fill="#555" transform="scale(0.691231 0.691231)" d="M887.927 585.44L888.246 585.763C888.26 586.382 888.205 586.873 887.957 587.448C886.32 591.246 884.348 595.235 881.732 598.458C871.732 610.783 851.262 618.83 836.76 624.601L836.367 624.282C840.002 614.366 863.461 603.797 872.419 597.874C877.979 594.198 883.004 589.911 887.927 585.44Z"/>
	<path fill="#555" transform="scale(0.691231 0.691231)" d="M872.958 614.494C872.947 615.36 872.786 615.803 872.491 616.618C870.748 621.441 868.413 626.023 864.868 629.779C855.978 639.196 834.433 646.472 822.426 652.114L822.371 651.685C825.36 643.675 852.424 628.974 860.321 623.85C864.719 620.996 869.011 617.95 872.958 614.494Z"/>
	<path fill="#555" transform="scale(0.691231 0.691231)" d="M855.458 644.024L855.693 644.578C855.385 645.583 855.019 646.57 854.599 647.534C852.826 651.549 850.623 655.879 847.557 659.076C838.705 668.303 821.011 671.896 809.223 676.451L808.798 675.972C814.443 665.399 836.179 657.541 846.438 651.224C849.816 649.144 852.636 646.802 855.458 644.024Z"/>
	<path fill="#555" transform="scale(0.691231 0.691231)" d="M908.123 453.33C909.694 457.43 909.938 462.296 910.525 466.634C904.898 471.884 899.945 478.002 894.58 483.543C890.135 488.134 885.341 492.095 880.355 496.066L879.501 496.483L879.098 496.025C881.195 484.169 893.702 473.846 900.889 464.688C903.655 461.164 905.727 457.107 908.123 453.33Z"/>
	<path fill="#555" transform="scale(0.691231 0.691231)" d="M766.914 857.027L767.258 857.45C767.057 861.285 767.295 868.505 765.375 871.785C764.934 872.538 764.15 871.461 763.313 871.476C756.317 871.604 740.09 878.514 732.115 880.561C731.102 880.432 731.519 880.631 730.825 880.056C739.98 869.807 754.75 863.099 766.914 857.027Z"/>
	<path fill="#555" transform="scale(0.691231 0.691231)" d="M834.746 677.049C834.275 681.037 827.021 691.427 824.241 694.917C815.493 698.622 805.62 699.923 796.578 702.898L796.576 702.132C800.044 694.605 816.657 688.687 824.042 684.475C827.817 682.322 831.279 679.659 834.746 677.049Z"/>
	<path fill="#555" transform="scale(0.691231 0.691231)" d="M799.401 746.99L799.74 747.347C798.337 752.544 796.016 758.426 793.521 763.196C784.777 766.875 775.509 769.163 766.764 773.054L766.42 772.504C775.639 762.114 787.48 753.986 799.401 746.99Z"/>
	<path fill="#555" transform="scale(0.691231 0.691231)" d="M905.033 440.374C906.415 441.352 907.007 446.54 907.386 448.283C902.09 457.546 893.42 465.527 885.567 472.66L885.027 473.128L884.633 472.731C885.761 460.51 896.41 448.461 905.033 440.374Z"/>
	<path fill="#555" transform="scale(0.691231 0.691231)" d="M808.415 725.484L808.72 725.778C808.37 729.263 804.014 736.683 802.488 740.198C792.829 744.832 783.041 748.869 773.553 753.908L773.407 753.805L773.483 752.997C782.929 741.888 796.1 733.15 808.415 725.484Z"/>
	<path fill="#555" transform="scale(0.691231 0.691231)" d="M790.471 770.59C790.942 771.795 785.345 786.386 784.537 788.714C776.286 790.131 769.052 793.321 761.45 796.668L761.107 796.433C761.119 796.297 761.113 796.159 761.143 796.026C762.243 791.236 785.228 773.913 790.471 770.59Z"/>
	<path fill="#555" transform="scale(0.691231 0.691231)" d="M769.602 839.958L770.024 840.095C770.934 841.987 768.751 850.094 768.314 852.631C759.534 853.886 751.261 856.176 743.05 859.52C742.728 859.494 742.444 859.295 742.149 859.162L742.641 859.317L742.539 857.912C750.321 850.343 759.227 843.514 769.602 839.958Z"/>
	<path fill="#555" transform="scale(0.691231 0.691231)" d="M774.537 820.46C775.623 822.493 771.899 834.079 771.197 836.903C764.138 837.129 756.923 839.306 750.059 840.865L749.679 840.652L749.7 839.994C757.014 831.855 766.599 827.597 774.537 820.46Z"/>
	<path fill="#555" transform="scale(0.691231 0.691231)" d="M781.4 796.556L781.567 796.725C782.044 799.93 778.429 809.264 777.313 812.883C769.641 813.75 762.476 814.615 755.383 817.845L755.089 817.299C759.247 810.435 774.608 801.328 781.4 796.556Z"/>
	<path fill="#555" transform="scale(0.691231 0.691231)" d="M764.879 873.58C766.196 877.011 766.334 880.799 766.577 884.428C756.899 885.982 748.421 887.471 739.138 890.723L738.44 890.806L738.307 890.249C743.345 884.019 750.42 879.935 757.668 876.777C760.092 875.721 762.774 875.224 764.879 873.58Z"/>
	<path fill="#FFF" transform="scale(0.691231 0.691231)" d="M433.807 436.452C434.753 437.535 434.182 442.928 434.159 444.639C433.966 459.126 434.177 473.3 435.929 487.692C438.702 489.317 441.829 490.421 444.884 491.391C481.592 503.039 500.257 491.112 533.1 479.621C545.945 475.127 558.961 471.759 571.043 465.253C575.677 462.758 580.078 459.662 584.205 456.407C586.348 454.717 588.44 452.529 590.864 451.276L591.714 452.046C592.928 455.467 592.461 459.324 592.221 462.882C590.607 486.825 582.033 510.77 573.383 532.948C568.339 545.758 564.45 558.993 561.763 572.496C558.198 590.115 556.847 607.547 548.151 623.74C536.143 646.099 517.578 662.774 500.611 681.19C470.534 713.836 440.183 748.321 418.837 787.516C414.878 794.786 411.443 802.399 408.022 809.932C398.435 831.046 391.124 851.399 398.754 874.684C401.361 882.64 405.223 890.182 408.168 898.029C399.393 902.36 388.934 904.29 379.303 905.827C376.194 906.324 368.708 908.196 366.204 906.381L366.107 904.682C367.431 902.574 372.654 902.138 375.012 901.487C382.895 899.312 389.179 894.851 395.561 889.945C397.292 892.586 399.191 895.046 401.147 897.523C398.117 890.551 395.018 884.017 392.49 876.803C386.138 882.975 379.935 888.194 372.107 892.456C369.016 894.189 365.946 895.631 362.568 896.709L362.213 896.229L361.614 895.436C360.828 894.384 360.06 893.272 359.167 892.304C355.804 888.655 351.268 886.01 346.224 885.873C339.671 885.696 334.697 889.303 330.117 893.499C328.947 890.382 327.815 887.377 325.609 884.81C321.738 880.305 316.567 879.22 310.919 878.885C317.819 871 326.185 868.845 332.714 862.407C347.5 847.825 344.147 804.281 344.595 783.979C353.047 771.273 362.834 751.741 369.424 737.887C373.861 728.56 378.03 718.723 383.416 709.905C386.367 705.075 390.616 701.112 394.42 696.96C399.204 691.739 403.902 686.286 408.093 680.575C432.899 646.778 456.118 603.048 468.853 563.161C464.948 569.636 461.578 576.474 457.823 583.045C445.073 605.355 427.177 635.289 410.583 654.592C428.549 609.52 438.775 570.568 440.418 521.845C440.718 512.951 441.274 503.932 440.801 495.041C438.051 512.757 433.175 530.169 429.566 547.746C419.559 523.077 418.515 493.643 424.061 467.668C426.334 457.024 430.005 446.628 433.807 436.452Z"/>
	<path fill="#555" transform="scale(0.691231 0.691231)" d="M567.228 514.794C570.083 522.304 556.497 570.531 553.052 580.551C549.769 590.102 537.236 594.494 528.773 598.499C528.831 596.821 537.407 585.021 538.903 582.42C541.667 577.611 543.777 572.137 546.086 567.081C549.369 559.893 552.819 552.737 555.588 545.33C558.786 536.777 562.435 521.884 567.228 514.794Z"/>
	<path fill="#555" transform="scale(0.691231 0.691231)" d="M444.195 735.975C444.489 738.701 428.844 760.545 426.019 764.354C416.851 776.711 402.504 782.452 387.719 784.635C387.699 784.485 387.632 784.334 387.659 784.185C388.027 782.15 398.916 775.836 401.064 774.381C414.681 765.16 431.998 747.754 444.195 735.975Z"/>
	<path fill="#555" transform="scale(0.691231 0.691231)" d="M404.853 801.547C404.473 804.211 397.414 820.32 395.501 822.833C388.622 831.866 374.522 835.981 363.827 837.555L363.77 837.086C365.601 834.384 376.948 827.014 380.332 824.374C389.207 817.45 396.825 809.391 404.853 801.547Z"/>
	<path fill="#555" transform="scale(0.691231 0.691231)" d="M459.022 716.003L459.57 716.144C459.524 717.723 457.551 719.553 456.558 720.798C454.881 722.901 452.985 725.465 450.811 727.077C440.618 734.639 425.475 738.785 413.048 740.186L412.377 739.462L412.591 738.693C425.845 729.499 443.73 721.325 459.022 716.003Z"/>
	<path fill="#555" transform="scale(0.691231 0.691231)" d="M392.215 831.402C392.255 831.714 392.339 832.024 392.335 832.339C392.304 834.922 390.964 838.102 390.585 840.747C390.178 843.582 390.479 846.497 389.727 849.284C389.429 850.392 388.786 851.27 387.981 852.072C381.568 858.47 368.024 860.974 359.28 861.019C359.585 859.302 361.222 858.711 362.613 857.715C373.844 849.67 383.46 842.195 392.215 831.402Z"/>
	<path fill="#555" transform="scale(0.691231 0.691231)" d="M416.769 777.445C416.806 777.647 416.876 777.844 416.881 778.049C416.945 780.857 409.814 791.393 407.642 793.964C399.559 803.531 386.968 808.609 374.717 809.565L374.716 808.638C379.839 803.963 387.091 800.273 392.859 796.311C401.181 790.595 409.146 784.06 416.769 777.445Z"/>
	<path fill="#555" transform="scale(0.691231 0.691231)" d="M388.812 856.849L389.318 857.412C389.804 862.769 390.731 868.004 391.767 873.275C383.176 878.988 374.355 881.796 364.119 882.852C362.789 882.857 362.59 883.073 361.465 882.265C361.601 881.28 361.64 881.188 362.436 880.568C364.926 878.627 368.193 877.138 370.9 875.451C378.542 870.686 383.885 864.3 388.812 856.849Z"/>
	<path fill="#555" transform="scale(0.691231 0.691231)" d="M475.931 695.549C475.709 697.04 468.112 705.949 466.473 707.634C460.695 713.576 441.918 715.897 433.838 715.912L433.787 715.618C435.22 713.223 469.257 699.155 475.931 695.549Z"/>
	<path fill="#555" transform="scale(0.691231 0.691231)" d="M492.408 677.012L492.871 677.539C491.747 679.569 490.042 681.214 488.444 682.878C479.173 692.528 468.628 694.546 455.672 694.811L455.175 694.365C457.568 690.417 487.113 678.986 492.408 677.012Z"/>
	<path fill="#555" transform="scale(0.691231 0.691231)" d="M529.347 633.061C529.35 633.921 528.847 634.669 528.369 635.363C519.25 648.606 507.824 653.694 492.315 656.07L492.241 655.553C495.677 649.425 521.671 638.052 529.347 633.061Z"/>
	<path fill="#555" transform="scale(0.691231 0.691231)" d="M548.665 591.434L549.136 591.735C549.139 594.719 546.885 598.648 545.317 601.158C539.864 609.887 531.339 614.141 521.451 616.413L521.047 616.04C523.219 608.24 542.21 596.779 548.665 591.434Z"/>
	<path fill="#555" transform="scale(0.691231 0.691231)" d="M539.58 613.083L539.805 613.323C539.71 615.674 538.222 618.569 536.861 620.453C530.61 629.109 517.756 634.342 507.483 635.795L507.306 635.553L507.45 634.761C517.465 626.127 528.242 619.712 539.58 613.083Z"/>
	<path fill="#FFF" transform="scale(0.691231 0.691231)" d="M510.058 655.463L510.513 656.045C509.339 659.334 505.454 663.383 502.923 665.827C495.78 672.725 485.781 674.594 476.171 674.388L475.831 673.792L478.231 672.286L478.091 671.347L478.849 671.925C489.036 665.987 499.754 661.164 510.058 655.463Z"/>
	<path fill="#FFF" transform="scale(0.691231 0.691231)" d="M540.776 721.843C542.691 726.259 544.249 744.52 545.464 751.001C549.194 770.892 558.83 821.564 569.871 837.751C576.805 847.917 587.431 856.471 596.051 865.277C585.699 878.217 571.673 885.846 556.851 892.544C553.564 888.238 550.056 884.939 545.278 882.378C542.17 881.232 539.051 880.438 535.715 880.521C528.89 880.691 523.672 883.974 519.096 888.761C515.393 886.01 512.364 884.726 507.855 883.776C508.581 882.091 509.292 880.4 509.987 878.702C516.135 863.61 510.994 848.757 502.448 835.741C499.463 831.193 495.554 826.483 493.554 821.425C489.018 809.952 502.152 784.553 508.476 774.806C513.758 766.664 520.113 759.284 525.288 751.057C531.172 741.718 536.349 731.953 540.776 721.843Z"/>
	<path fill="#FFF" transform="scale(0.691231 0.691231)" d="M289.485 376.22C295.09 376.293 305.15 376.519 309.451 380.51C310.398 381.388 310.737 382.212 310.654 383.514C310.346 388.315 297.605 399.84 293.841 403.18C281.967 413.719 268.835 424.317 255.449 432.86C215.957 458.064 168.077 472.315 121.124 469.561C112.564 469.174 104.245 468.106 95.7887 466.797C103.553 466.228 111.209 466.096 118.951 465.106C155.028 460.494 189.149 447.124 219.921 427.955C232.882 419.882 245.682 409.33 256.435 398.453C262.275 392.546 267.227 384.967 274.253 380.406C278.802 377.452 284.183 376.566 289.485 376.22Z"/>
	<path fill="#FFF" transform="scale(0.691231 0.691231)" d="M626.961 422.517C628.352 424.576 627.589 431.244 627.356 433.785C624.645 463.328 611.598 496.975 597.258 522.671C594.611 527.414 590.98 534.824 586.866 538.24L587.315 536.378C593.38 516.556 600.501 483.46 596.456 463.092C595.53 458.429 593.629 454.431 591.56 450.172C597.891 445.486 604.137 440.687 610.296 435.777C615.799 431.32 621.121 426.526 626.961 422.517Z"/>
	<path fill="#FFF" transform="scale(0.691231 0.691231)" d="M564.517 611.444C574.945 622.054 587.381 630.921 600.35 638.173C639.042 659.808 678.624 665.122 722.177 668.82C722.19 671.838 723.338 676.434 721.492 678.923L719.403 679.05C655.404 674.345 611.953 661.144 560.263 622.216L564.517 611.444Z"/>
	<path fill="#FFF" transform="scale(0.691231 0.691231)" d="M934.148 495.87C936.774 498.602 939.519 507.679 940.911 511.606C948.57 533.217 957.515 563.832 955.328 586.747C954.623 594.127 952.655 600.864 949.475 607.54L948.845 608.175C948.259 606.253 949.965 601.609 950.444 599.527C956.086 575.034 946.454 535.827 932.97 514.223C933.01 508.104 933.623 501.963 934.148 495.87Z"/>
	<path fill="#FFF" transform="scale(0.691231 0.691231)" d="M936.486 848.954C936.677 850.455 935.689 851.993 934.927 853.222C929.594 861.827 912.816 876.397 902.729 878.137C901.124 878.414 900.649 877.86 899.381 876.931C898.192 875.359 897.236 874.2 897.047 872.19C897.503 870.767 897.514 870.436 898.783 869.567C902.89 866.754 908.124 865.13 912.663 863.087C921.176 859.256 929.117 854.699 936.486 848.954Z"/>
	<path fill="#FFF" transform="scale(0.691231 0.691231)" d="M311.405 887.597C313.892 887.663 316.08 887.928 318.119 889.481C322.386 892.73 323.282 898.444 324.039 903.401L317.057 901.688C312.004 899.915 306.839 898.286 302.012 895.953C302.63 894.478 303.315 892.919 304.172 891.567C305.885 888.868 308.459 888.244 311.405 887.597Z"/>
	<path fill="#FFF" transform="scale(0.691231 0.691231)" d="M342.573 895.134C344.988 894.876 347.482 894.622 349.764 895.629C354.22 897.596 355.769 902.435 357.408 906.629C354.828 906.56 352.27 906.333 349.699 906.115C344.108 905.755 338.521 905.33 332.94 904.842C335.527 899.869 337.066 897.127 342.573 895.134Z"/>
	<path fill="#FFF" transform="scale(0.691231 0.691231)" d="M533.621 889.161C535.08 889.138 536.578 889.165 538.03 889.313C542.775 889.795 545.689 892.322 548.543 895.918C544.67 897.245 540.585 898.081 536.61 899.055C532.88 899.884 529.102 900.553 525.352 901.289L524.312 895.207C527.04 891.853 529.428 890.26 533.621 889.161Z"/>
	<path fill="#FFF" transform="scale(0.691231 0.691231)" d="M716.06 893.997C718.732 893.822 721.514 894.085 723.923 895.335C727.985 897.442 729.305 901.494 730.639 905.537L722.404 904.876C717.522 904.322 712.647 903.703 707.781 903.019C709.823 899.067 712.439 896.486 716.06 893.997Z"/>
	<path fill="#FFF" transform="scale(0.691231 0.691231)" d="M685.075 885.378C686.58 885.493 687.994 885.618 689.398 886.226C693.354 887.941 696.268 892.013 697.69 895.967C698.243 897.506 698.872 899.202 698.161 900.736L696.885 900.672C691.761 899.404 686.793 897.854 681.823 896.081C682.65 892.357 683.51 888.872 685.075 885.378Z"/>
	<path fill="#FFF" transform="scale(0.691231 0.691231)" d="M876.483 875.115C877.334 875.063 878.112 875.061 878.962 875.171C883.542 875.765 885.712 878.261 888.342 881.739C884.43 882.778 880.37 883.369 876.388 884.084C872.265 884.647 868.204 885.015 864.047 885.205C864.583 884.046 865.112 882.828 865.771 881.73C868.303 877.509 871.954 876.192 876.483 875.115Z"/>
	<path fill="#FFF" transform="scale(0.691231 0.691231)" d="M505.828 892.001C506.922 891.973 508.188 891.831 509.262 892.03C511.274 892.402 514.386 895.565 515.469 897.223C516.364 898.593 516.544 899.679 516.188 901.294C514.766 902.349 513.681 902.086 511.94 902.142C509.253 902.424 504.922 903.186 502.405 902.154C501.782 901.078 501.577 900.555 501.838 899.299C502.461 896.312 503.345 893.831 505.828 892.001Z"/>
</svg>
