<svg width="300" height="300" xmlns="http://www.w3.org/2000/svg">
  <!-- First elephant -->
  <path d="M60,120 C55,115 45,110 35,110 C25,110 15,115 10,120 C5,125 0,135 0,145 C0,155 5,160 15,160 C25,160 35,155 40,150 C45,145 50,135 50,125 C50,115 45,110 40,115 C35,120 35,130 40,135 C45,140 55,135 60,130 C65,125 65,120 60,120 Z" 
        stroke="#DDDDDD" 
        fill="none" 
        stroke-width="2"/>
  
  <!-- Second elephant -->
  <path d="M180,40 C175,35 165,30 155,30 C145,30 135,35 130,40 C125,45 120,55 120,65 C120,75 125,80 135,80 C145,80 155,75 160,70 C165,65 170,55 170,45 C170,35 165,30 160,35 C155,40 155,50 160,55 C165,60 175,55 180,50 C185,45 185,40 180,40 Z" 
        stroke="#DDDDDD" 
        fill="none" 
        stroke-width="2"/>
        
  <!-- Third elephant -->
  <path d="M240,200 C235,195 225,190 215,190 C205,190 195,195 190,200 C185,205 180,215 180,225 C180,235 185,240 195,240 C205,240 215,235 220,230 C225,225 230,215 230,205 C230,195 225,190 220,195 C215,200 215,210 220,215 C225,220 235,215 240,210 C245,205 245,200 240,200 Z" 
        stroke="#DDDDDD" 
        fill="none" 
        stroke-width="2"/>
        
  <!-- Fourth elephant -->
  <path d="M100,260 C95,255 85,250 75,250 C65,250 55,255 50,260 C45,265 40,275 40,285 C40,295 45,300 55,300 C65,300 75,295 80,290 C85,285 90,275 90,265 C90,255 85,250 80,255 C75,260 75,270 80,275 C85,280 95,275 100,270 C105,265 105,260 100,260 Z" 
        stroke="#DDDDDD" 
        fill="none" 
        stroke-width="2"/>
</svg>