<svg width="80" height="80" viewBox="0 0 80 80" xmlns="http://www.w3.org/2000/svg">
  <path d="M70,30 C65,25 55,20 45,20 C35,20 25,25 20,30 C15,35 10,45 10,55 C10,65 15,70 25,70 C35,70 45,65 50,60 C55,55 60,45 60,35 C60,25 55,20 50,25 C45,30 45,40 50,45 C55,50 65,45 70,40 C75,35 75,30 70,30 Z" 
        fill="#888888" />
  <path d="M15,30 C10,35 5,45 5,55 C5,65 10,70 20,70 C30,70 40,65 45,60 C50,55 55,45 55,35 C55,25 50,20 45,25 C40,30 40,40 45,45 C50,50 60,45 65,40 C70,35 70,30 65,30 C60,25 50,20 40,20 C30,20 20,25 15,30 Z" 
        fill="#666666" />
  <path d="M25,40 C20,45 20,55 25,60 C30,65 40,60 45,55 C50,50 50,40 45,35 C40,30 30,35 25,40 Z" 
        fill="#ffffff" />
  <circle cx="30" cy="45" r="2" fill="#000000" />
</svg>